<svg viewBox="0 0 114 169" fill="none" xmlns="http://www.w3.org/2000/svg">
<path d="M109 0H5C2.23858 0 0 2.23858 0 5V164C0 166.761 2.23858 169 5 169H109C111.761 169 114 166.761 114 164V5C114 2.23858 111.761 0 109 0Z" fill="#C4C4C4"/>
<path d="M67.2534 90.4927L74.5834 93.4887C75.9754 94.0567 77.4994 93.0347 77.4994 91.5307V78.2527C77.4994 76.7487 75.9754 75.7247 74.5834 76.2927L67.2534 79.2887" stroke="white" stroke-width="1.5" stroke-linecap="round" stroke-linejoin="round"/>
<path fill-rule="evenodd" clip-rule="evenodd" d="M47.608 98.7817H60.146C64.514 98.7817 67.254 95.9357 67.254 91.9057V77.8757C67.254 73.8457 64.526 70.9997 60.146 70.9997H47.608C43.226 70.9997 40.5 73.8457 40.5 77.8757V91.9057C40.5 95.9357 43.226 98.7817 47.608 98.7817Z" stroke="white" stroke-width="1.5" stroke-linecap="round" stroke-linejoin="round"/>
</svg>
